<?xml version="1.0" standalone="no"?>
<!DOCTYPE svg PUBLIC "-//W3C//DTD SVG 20010904//EN"
 "http://www.w3.org/TR/2001/REC-SVG-20010904/DTD/svg10.dtd">
<svg version="1.0" xmlns="http://www.w3.org/2000/svg"
 width="361.000000pt" height="361.000000pt" viewBox="0 0 361.000000 361.000000"
 preserveAspectRatio="xMidYMid meet">
<metadata>
Created by potrace 1.14, written by Peter Selinger 2001-2017
</metadata>
<g transform="translate(0.000000,361.000000) scale(0.100000,-0.100000)"
fill="#000000" stroke="none">
<path d="M0 3591 c0 -24 18 -27 123 -23 55 3 77 7 77 17 0 20 -24 25 -116 25
-76 0 -84 -2 -84 -19z"/>
<path d="M220 3596 c0 -13 20 -26 41 -26 5 0 9 6 9 14 0 8 10 17 23 19 12 2 1
5 -25 6 -35 1 -48 -3 -48 -13z"/>
<path d="M346 3590 c16 -16 34 -21 89 -22 125 -2 135 0 135 22 0 15 -7 20 -25
20 -16 0 -25 -6 -25 -15 0 -9 -9 -15 -21 -15 -15 0 -19 5 -15 15 4 13 -8 15
-77 15 l-81 0 20 -20z"/>
<path d="M600 3600 c0 -13 11 -13 30 0 12 8 11 10 -7 10 -13 0 -23 -4 -23 -10z"/>
<path d="M720 3590 c-10 -19 -8 -20 79 -20 86 0 101 5 101 36 0 2 -38 4 -85 4
-74 0 -86 -2 -95 -20z"/>
<path d="M1035 3590 c13 -14 26 -19 41 -16 13 4 26 2 29 -4 9 -15 35 -12 35 4
0 16 -28 27 -84 33 l-40 4 19 -21z"/>
<path d="M1548 3603 c7 -3 16 -2 19 1 4 3 -2 6 -13 5 -11 0 -14 -3 -6 -6z"/>
<path d="M1764 3595 c-11 -8 -14 -15 -6 -15 20 0 14 -20 -7 -20 -10 0 -24 -7
-31 -15 -11 -13 -9 -15 13 -15 14 0 27 -6 30 -13 7 -19 51 -14 55 5 2 12 -4
15 -25 12 -17 -2 -20 -1 -8 2 11 4 24 12 28 20 4 8 21 14 37 14 19 0 33 7 40
20 9 17 8 20 -10 20 -12 0 -31 -5 -42 -11 -14 -8 -23 -8 -31 0 -14 14 -19 14
-43 -4z"/>
<path d="M2119 3592 c5 -9 19 -26 31 -37 l22 -20 -13 30 c-14 30 -27 45 -42
45 -4 0 -3 -8 2 -18z"/>
<path d="M2232 3588 c11 -22 15 -23 137 -20 157 3 206 9 221 27 11 13 -13 15
-178 15 l-190 0 10 -22z"/>
<path d="M2630 3600 c19 -13 30 -13 30 0 0 6 -10 10 -22 10 -19 0 -20 -2 -8
-10z"/>
<path d="M2731 3600 c-67 -8 -61 -25 9 -25 39 0 60 4 60 11 0 17 -18 20 -69
14z"/>
<path d="M2820 3596 c0 -8 5 -18 10 -21 6 -3 10 3 10 14 0 12 -4 21 -10 21 -5
0 -10 -6 -10 -14z"/>
<path d="M2850 3604 c1 -24 26 -29 153 -32 129 -3 138 -2 135 15 -3 16 -16 18
-116 21 -79 2 -112 -1 -112 -9 0 -6 -7 -8 -15 -5 -8 3 -22 9 -30 12 -8 3 -15
2 -15 -2z"/>
<path d="M3167 3603 c-4 -3 -7 -12 -7 -18 0 -18 279 -13 290 5 4 7 12 10 18 6
6 -3 13 -2 17 4 4 6 -26 10 -84 9 -50 0 -91 -5 -91 -9 0 -5 -14 -4 -31 2 -25
8 -33 8 -40 -3 -6 -10 -9 -11 -9 -1 0 12 -51 17 -63 5z"/>
<path d="M3503 3591 c-2 -18 0 -18 30 -3 20 10 32 12 34 5 5 -13 43 -5 43 8 0
5 -24 9 -53 9 -45 0 -53 -3 -54 -19z"/>
<path d="M658 3583 c-10 -2 -18 -9 -18 -15 0 -5 7 -7 16 -4 9 3 20 6 25 6 5 0
9 5 9 10 0 10 -3 11 -32 3z"/>
<path d="M1246 3582 c-3 -6 -1 -14 5 -17 15 -10 25 3 12 16 -7 7 -13 7 -17 1z"/>
<path d="M1670 3580 c-10 -6 -11 -10 -2 -10 6 0 12 -7 12 -16 0 -11 -6 -14
-22 -8 -13 4 -26 11 -30 17 -7 11 -58 17 -58 6 0 -14 50 -39 78 -39 29 0 62
26 62 48 0 14 -19 15 -40 2z"/>
<path d="M2004 3570 c1 -18 44 -26 59 -11 8 8 3 10 -20 5 -22 -4 -32 -2 -36 7
-3 10 -4 10 -3 -1z"/>
<path d="M2087 3571 c-3 -14 -1 -18 9 -14 16 6 18 19 5 27 -5 3 -11 -3 -14
-13z"/>
<path d="M580 3570 c-13 -8 -13 -11 2 -26 14 -14 20 -15 32 -4 9 7 16 17 16
23 0 7 -4 7 -12 -1 -17 -17 -29 -15 -22 3 7 17 5 18 -16 5z"/>
<path d="M956 3564 c-9 -22 3 -32 14 -14 12 19 12 30 1 30 -5 0 -12 -7 -15
-16z"/>
<path d="M1285 3560 c-10 -11 -16 -23 -12 -26 7 -7 47 14 47 26 0 19 -18 19
-35 0z"/>
<path d="M2178 3573 c6 -2 18 -2 25 0 6 3 1 5 -13 5 -14 0 -19 -2 -12 -5z"/>
<path d="M910 3559 c0 -5 5 -7 10 -4 6 3 10 8 10 11 0 2 -4 4 -10 4 -5 0 -10
-5 -10 -11z"/>
<path d="M1200 3560 c-19 -4 -22 -8 -10 -15 8 -5 24 -9 36 -10 19 0 21 2 11
15 -6 8 -11 15 -12 16 0 0 -11 -2 -25 -6z"/>
<path d="M1349 3568 c-6 -21 -5 -38 2 -38 5 0 9 5 9 10 0 6 7 10 16 10 8 0 12
5 9 10 -5 9 -34 15 -36 8z"/>
<path d="M1435 3550 c-18 -19 -17 -20 4 -20 12 0 19 4 16 10 -3 6 1 10 9 10 9
0 16 5 16 10 0 17 -26 11 -45 -10z"/>
<path d="M1520 3555 c0 -8 -8 -15 -17 -16 -15 0 -15 -2 2 -9 15 -7 10 -9 -22
-9 -24 -1 -43 -5 -43 -11 0 -5 18 -10 40 -10 27 0 40 -4 40 -13 0 -10 -11 -13
-40 -10 l-40 4 1 -43 c2 -30 3 -35 6 -15 5 33 23 36 24 5 l1 -23 7 23 c4 16
19 28 44 37 50 17 53 21 34 43 -13 14 -14 21 -4 31 9 9 9 14 -3 21 -21 14 -30
12 -30 -5z"/>
<path d="M1914 3551 c0 -11 4 -17 8 -15 4 3 8 12 8 20 0 8 -4 14 -8 14 -4 0
-8 -9 -8 -19z"/>
<path d="M205 3551 c-3 -5 3 -12 12 -14 10 -3 -15 -5 -56 -4 -50 1 -76 -3 -79
-11 -2 -7 -12 -12 -23 -12 -27 0 -59 -35 -59 -65 0 -22 5 -25 33 -25 25 0 29
-3 17 -11 -12 -9 -12 -10 4 -5 10 4 26 1 34 -6 13 -11 14 -11 8 1 -6 9 -5 12
5 9 8 -3 20 1 27 9 7 7 23 13 35 14 12 0 34 2 50 4 18 2 27 -1 27 -11 0 -10
-12 -14 -40 -14 -27 0 -40 -4 -40 -14 0 -10 13 -12 53 -9 65 6 80 10 72 23 -3
5 3 18 15 30 11 11 20 29 20 40 0 17 -7 20 -40 20 -28 0 -40 4 -40 14 0 8 5
18 10 21 6 4 8 11 5 16 -8 12 -42 12 -50 0z m-17 -73 c9 -9 15 -9 24 0 18 18
28 15 28 -8 0 -19 -6 -20 -74 -18 -41 2 -72 6 -69 11 2 4 17 7 34 7 16 0 29 5
29 10 0 14 13 13 28 -2z"/>
<path d="M685 3550 c-3 -5 1 -13 10 -16 22 -9 29 1 11 15 -10 8 -16 9 -21 1z"/>
<path d="M1840 3550 c0 -5 7 -10 16 -10 8 0 12 5 9 10 -3 6 -10 10 -16 10 -5
0 -9 -4 -9 -10z"/>
<path d="M1960 3550 c0 -5 9 -19 20 -30 11 -11 20 -33 20 -50 0 -35 15 -40 24
-7 10 36 7 45 -14 52 -11 3 -20 15 -20 26 0 10 -7 19 -15 19 -8 0 -15 -4 -15
-10z"/>
<path d="M408 3543 c7 -3 16 -2 19 1 4 3 -2 6 -13 5 -11 0 -14 -3 -6 -6z"/>
<path d="M496 3542 c-2 -4 13 -8 35 -8 21 -1 36 2 33 7 -6 11 -61 12 -68 1z"/>
<path d="M645 3540 c-3 -5 1 -10 9 -10 9 0 16 5 16 10 0 6 -4 10 -9 10 -6 0
-13 -4 -16 -10z"/>
<path d="M2218 3543 c7 -3 16 -2 19 1 4 3 -2 6 -13 5 -11 0 -14 -3 -6 -6z"/>
<path d="M10 3530 c-8 -5 -11 -12 -8 -16 10 -9 38 3 38 16 0 12 -10 13 -30 0z"/>
<path d="M1138 3533 c7 -3 16 -2 19 1 4 3 -2 6 -13 5 -11 0 -14 -3 -6 -6z"/>
<path d="M2401 3514 c0 -11 3 -14 6 -6 3 7 2 16 -1 19 -3 4 -6 -2 -5 -13z"/>
<path d="M560 3485 c0 -8 5 -15 10 -15 6 0 10 7 10 15 0 8 -4 15 -10 15 -5 0
-10 -7 -10 -15z"/>
<path d="M1840 3465 c0 -8 4 -15 9 -15 5 0 16 -3 25 -6 11 -4 16 0 16 13 0 13
-8 19 -25 21 -16 1 -25 -3 -25 -13z"/>
<path d="M960 3460 c0 -5 5 -10 11 -10 5 0 7 5 4 10 -3 6 -8 10 -11 10 -2 0
-4 -4 -4 -10z"/>
<path d="M560 3430 c0 -11 7 -20 15 -20 8 0 15 6 15 13 0 8 4 7 10 -3 8 -13
10 -12 10 3 0 9 5 17 11 17 6 0 9 -7 5 -15 -3 -8 -1 -15 4 -15 6 0 10 9 10 20
0 17 -7 20 -40 20 -33 0 -40 -3 -40 -20z"/>
<path d="M1501 3427 c0 -20 1 -20 8 -3 7 18 8 18 29 -4 12 -13 25 -20 29 -16
4 4 1 11 -7 16 -8 5 -11 12 -7 17 10 9 27 -16 27 -39 0 -10 15 -31 33 -48 17
-17 48 -47 69 -66 32 -32 39 -34 60 -23 12 6 20 9 17 5 -4 -4 4 -18 17 -31 28
-28 30 -45 9 -86 -16 -30 -13 -49 7 -49 7 0 7 4 0 13 -7 8 -6 17 3 30 11 16
14 11 20 -41 6 -54 11 -63 59 -110 29 -29 55 -52 58 -52 3 0 8 27 11 61 4 44
11 65 26 78 12 10 21 26 21 35 0 11 4 14 13 9 6 -4 24 -8 40 -9 25 -2 27 1 27
38 0 37 -2 39 -27 36 -20 -2 -27 -8 -25 -20 1 -9 -2 -19 -7 -23 -6 -3 -9 11
-8 34 1 44 -5 57 -23 46 -7 -4 -10 -27 -9 -55 2 -41 -2 -55 -24 -81 -17 -21
-27 -45 -27 -66 0 -39 -9 -41 -39 -9 -18 19 -23 38 -26 96 -4 80 -26 124 -95
190 -21 19 -40 48 -44 64 -8 31 -18 28 -23 -7 -6 -39 -21 -43 -50 -14 -15 15
-22 27 -16 27 7 0 16 -6 20 -14 7 -12 11 -12 27 -1 18 14 18 15 -8 26 -31 15
-33 25 -6 32 11 3 20 2 20 -2 0 -5 14 -8 30 -9 17 0 30 4 30 9 0 5 5 9 11 9 7
0 9 -10 5 -25 -5 -21 -1 -27 34 -44 50 -24 105 -37 96 -23 -3 6 0 13 6 15 8 4
4 8 -9 12 -12 4 -28 20 -35 36 -16 36 -28 37 -28 4 0 -20 -5 -25 -25 -25 -25
0 -25 0 -10 30 9 17 13 35 10 40 -10 16 -43 11 -54 -7 -10 -17 -12 -17 -25 0
-16 21 -27 22 -20 2 7 -18 8 -18 -36 -5 -19 6 -63 13 -97 15 -60 5 -63 4 -62
-18z m354 -77 c13 -6 15 -9 5 -9 -8 0 -22 4 -30 9 -18 12 -2 12 25 0z m-136
-49 c16 -14 19 -21 10 -27 -11 -7 -39 20 -39 38 0 12 5 10 29 -11z"/>
<path d="M2321 3434 c0 -11 3 -14 6 -6 3 7 2 16 -1 19 -3 4 -6 -2 -5 -13z"/>
<path d="M2472 3434 c-7 -8 -8 -14 -3 -14 10 0 25 19 20 25 -2 1 -10 -3 -17
-11z"/>
<path d="M685 3430 c3 -5 -2 -10 -12 -10 -15 0 -16 -2 -3 -10 12 -8 11 -10 -7
-10 -14 0 -23 -6 -23 -15 0 -12 15 -15 83 -14 76 1 79 2 40 11 -41 9 -60 28
-28 28 8 0 15 5 15 11 0 6 -9 9 -20 6 -11 -3 -18 -1 -14 4 3 5 -4 9 -16 9 -12
0 -18 -4 -15 -10z"/>
<path d="M880 3425 c0 -9 5 -15 11 -13 6 2 11 8 11 13 0 5 -5 11 -11 13 -6 2
-11 -4 -11 -13z"/>
<path d="M2400 3430 c0 -5 5 -10 11 -10 5 0 7 5 4 10 -3 6 -8 10 -11 10 -2 0
-4 -4 -4 -10z"/>
<path d="M450 3420 c0 -5 7 -10 15 -10 32 0 13 -19 -27 -28 l-43 -10 43 -1
c23 -1 42 3 42 8 0 5 14 12 30 16 36 8 39 20 8 29 -35 9 -68 7 -68 -4z"/>
<path d="M2375 3381 c0 -35 -7 -46 -72 -109 -63 -62 -72 -75 -79 -118 -4 -27
-7 -63 -7 -81 1 -23 -8 -40 -32 -63 l-32 -31 0 41 c0 31 -7 48 -27 69 -18 19
-26 38 -26 64 0 20 5 37 10 37 6 0 3 11 -6 25 -20 31 -50 36 -34 6 5 -11 10
-42 10 -69 0 -38 5 -55 25 -76 28 -31 32 -46 10 -46 -11 0 -15 -11 -15 -42 0
-34 -6 -46 -32 -70 -17 -15 -35 -28 -40 -28 -10 0 -31 51 -23 58 3 3 5 0 5 -6
0 -18 24 -14 48 7 30 26 28 68 -4 96 l-26 23 -34 -22 c-30 -19 -41 -44 -35
-80 1 -4 -3 -14 -9 -21 -8 -10 -3 -19 20 -38 16 -14 30 -30 30 -35 0 -17 32
-23 49 -10 60 45 71 62 71 107 0 33 3 42 10 31 5 -8 7 -23 4 -32 -9 -30 15
-20 69 27 29 25 57 45 62 45 7 0 10 21 7 60 -3 36 0 60 5 60 6 0 8 11 5 25 -4
26 12 35 22 13 4 -7 4 -3 2 10 -3 15 8 35 36 67 38 42 42 44 55 28 8 -10 11
-12 8 -5 -14 26 -17 74 -5 67 7 -4 5 6 -4 24 -9 17 -18 31 -19 31 -1 0 -2 -18
-2 -39z"/>
<path d="M828 3403 c7 -3 16 -2 19 1 4 3 -2 6 -13 5 -11 0 -14 -3 -6 -6z"/>
<path d="M1491 3385 c0 -11 4 -29 9 -40 8 -18 9 -18 9 5 0 14 -4 32 -9 40 -8
12 -10 12 -9 -5z"/>
<path d="M2330 3385 c-8 -10 -31 -15 -64 -15 -37 0 -47 -3 -36 -10 13 -9 13
-11 0 -20 -12 -8 -11 -10 7 -10 31 0 113 41 113 57 0 17 -5 16 -20 -2z m-50
-29 c0 -2 -7 -6 -15 -10 -8 -3 -15 -1 -15 4 0 6 7 10 15 10 8 0 15 -2 15 -4z"/>
<path d="M1452 3374 c-15 -16 -10 -100 7 -117 6 -6 11 -27 12 -46 l1 -36 11
34 c8 26 8 36 -1 39 -8 2 -10 20 -6 57 7 61 -3 91 -24 69z m15 -66 c-2 -13 -4
-3 -4 22 0 25 2 35 4 23 2 -13 2 -33 0 -45z"/>
<path d="M828 3373 c7 -3 16 -2 19 1 4 3 -2 6 -13 5 -11 0 -14 -3 -6 -6z"/>
<path d="M48 3363 c7 -3 16 -2 19 1 4 3 -2 6 -13 5 -11 0 -14 -3 -6 -6z"/>
<path d="M160 3356 c-11 -5 -20 -16 -20 -24 0 -10 -6 -12 -17 -7 -10 4 -27 10
-38 13 -18 5 -19 4 -6 -12 14 -17 12 -17 -33 -11 -43 7 -48 6 -44 -11 2 -10
12 -20 23 -22 11 -2 25 -9 30 -14 7 -7 0 -9 -22 -5 -25 5 -33 3 -33 -8 0 -8 3
-14 8 -14 4 1 12 1 19 0 17 -1 4 -31 -13 -31 -12 0 -14 -54 -14 -328 l0 -328
61 -13 c76 -15 134 -42 117 -53 -9 -5 -7 -8 7 -8 29 -1 79 -45 72 -64 -4 -10
-1 -13 7 -10 8 3 19 -7 27 -25 8 -17 17 -31 20 -31 6 0 69 -97 69 -106 0 -2 9
-13 20 -24 11 -11 23 -32 26 -47 10 -38 33 -73 50 -73 8 0 14 -5 14 -10 0 -6
11 -15 25 -20 14 -5 25 -14 25 -20 0 -5 8 -10 18 -10 10 0 24 -6 31 -12 17
-18 207 -14 254 5 19 9 37 13 40 11 2 -3 10 2 17 11 7 8 17 15 23 15 16 0 -43
-59 -76 -76 -15 -8 -33 -12 -39 -8 -8 5 -9 2 -5 -10 4 -10 1 -19 -8 -22 -8 -4
-15 -13 -15 -21 0 -8 3 -13 8 -11 74 38 167 78 182 78 10 0 20 3 22 8 2 4 27
19 57 34 42 21 57 25 63 15 4 -6 5 -19 2 -27 -4 -8 -17 -55 -29 -105 -30 -116
-31 -118 -65 -144 -37 -26 -37 -39 -5 -66 25 -20 25 -20 12 -85 -11 -51 -12
-99 -6 -214 5 -81 12 -153 16 -159 4 -7 10 -32 14 -57 4 -25 19 -108 33 -185
58 -306 66 -367 77 -535 11 -163 6 -429 -7 -464 -6 -14 35 -16 375 -16 370 0
381 1 381 19 0 25 18 37 33 22 20 -20 24 -12 31 49 7 61 21 79 29 37 l4 -22 8
22 c4 13 13 23 20 23 6 0 20 9 30 20 17 19 19 19 31 2 18 -25 35 -4 38 48 2
38 1 40 -12 24 -13 -18 -14 -18 -33 5 -10 13 -19 31 -19 42 0 10 -4 21 -10 24
-13 8 -13 42 1 50 15 10 37 -24 32 -49 -4 -21 -4 -21 12 -1 11 13 14 31 11 50
-3 17 -7 58 -9 92 -3 53 -1 62 15 66 25 7 23 43 -3 50 -15 4 -20 11 -15 22 3
9 6 25 6 36 0 14 7 19 26 19 21 0 24 -3 19 -21 -5 -14 -4 -19 4 -15 7 5 9 1 5
-8 -4 -11 0 -16 11 -16 9 0 19 9 22 20 8 30 21 24 32 -12 5 -18 10 -25 10 -16
1 20 28 27 59 16 18 -6 22 -4 22 12 0 13 -7 20 -18 20 -27 0 -33 10 -17 26 7
8 16 19 18 26 4 10 8 9 16 -2 16 -23 43 0 46 39 3 39 -12 72 -50 107 -29 27
-22 46 15 37 13 -3 19 3 24 27 9 45 6 174 -4 240 -22 129 -31 249 -23 295 7
41 13 51 33 57 122 34 130 39 146 93 9 28 3 146 -9 190 -3 11 -6 27 -6 36 -1
22 -46 32 -71 17 -18 -11 -23 -10 -35 5 -11 15 -24 18 -62 15 -46 -3 -48 -2
-53 27 -6 35 -20 37 -37 5 -13 -26 -59 -34 -83 -15 -8 7 -38 23 -67 36 -47 21
-52 26 -58 65 -8 55 10 92 50 103 35 9 82 4 91 -10 11 -19 34 -8 34 15 0 18 7
26 23 29 19 4 18 4 -6 6 -16 0 -30 8 -34 18 -4 9 -18 28 -32 41 l-26 23 40 -6
c22 -4 42 -10 45 -15 9 -14 71 -41 88 -38 9 1 22 -1 29 -5 7 -5 21 1 33 13 11
11 28 20 39 20 32 0 44 24 22 44 -13 12 -21 14 -26 6 -9 -15 -25 -2 -25 21 0
10 -4 19 -10 19 -5 0 -10 7 -10 15 0 8 -7 15 -15 15 -8 0 -15 4 -15 8 0 5 -11
14 -25 20 -14 7 -25 20 -25 31 0 28 -30 34 -121 26 -72 -6 -79 -5 -73 10 6 14
1 16 -32 13 -24 -2 -39 -8 -39 -16 0 -20 -45 -62 -66 -62 -10 0 -19 7 -19 15
0 8 5 15 10 15 6 0 10 9 10 20 0 22 -16 27 -22 8 -3 -9 -23 -8 -84 2 -43 7
-84 17 -90 22 -22 17 -103 11 -236 -17 -49 -11 -88 -23 -88 -27 0 -4 -6 -5
-14 -2 -9 3 -24 -7 -37 -25 -29 -39 -44 -39 -44 -1 0 22 9 36 35 55 19 14 43
39 53 56 l20 30 -29 -7 -28 -7 23 29 c30 38 51 90 51 123 -1 25 -2 25 -19 -9
-21 -39 -68 -87 -77 -78 -3 4 0 16 6 28 31 58 35 285 5 260 -9 -7 -16 -6 -25
5 -20 24 -26 18 -22 -21 7 -56 -14 -39 -64 51 -55 101 -56 123 -2 66 23 -24
38 -35 34 -25 -12 28 -36 145 -36 171 0 13 5 23 11 23 20 0 -1 102 -29 145
-15 22 -30 47 -34 55 -4 10 -7 10 -7 3 -1 -7 -9 -13 -18 -13 -15 0 -16 2 -3
10 20 12 12 18 -37 23 -23 2 -49 12 -58 21 -10 9 -23 15 -30 12 -7 -2 -25 9
-39 25 -26 28 -46 38 -46 20 0 -5 16 -19 35 -32 19 -13 38 -32 41 -41 3 -9 14
-20 25 -23 10 -4 19 -11 19 -16 0 -16 -40 0 -84 32 -22 16 -46 29 -54 29 -8 0
-12 6 -8 15 3 8 1 15 -4 15 -6 0 -10 -5 -10 -11 0 -6 -12 -8 -27 -5 -46 8 -73
18 -73 25 0 13 -289 12 -312 0 -16 -9 -38 -8 -92 1 -83 16 -227 19 -256 6z
m-123 -62 c-3 -3 -12 -4 -19 -1 -8 3 -5 6 6 6 11 1 17 -2 13 -5z m143 -54
c-13 -11 -32 -20 -44 -20 -20 1 -20 1 -3 14 18 14 18 14 0 19 -10 3 2 5 26 6
l44 1 -23 -20z m-100 -10 c0 -5 -2 -10 -4 -10 -3 0 -8 5 -11 10 -3 6 -1 10 4
10 6 0 11 -4 11 -10z m1088 -136 c-8 -8 -48 32 -48 48 0 7 12 0 27 -14 15 -15
24 -30 21 -34z m142 -781 c0 -20 -18 -15 -30 6 -15 28 -12 33 10 19 11 -7 20
-18 20 -25z m-60 1 c0 -17 -22 -14 -28 4 -2 7 3 12 12 12 9 0 16 -7 16 -16z
m650 -34 c0 -5 -9 -19 -19 -29 -10 -10 -22 -28 -26 -40 -8 -26 -16 -26 -49 0
-31 24 -31 28 -8 57 13 16 28 22 60 22 23 0 42 -4 42 -10z m-620 -10 c0 -5 -4
-10 -10 -10 -5 0 -10 5 -10 10 0 6 5 10 10 10 6 0 10 -4 10 -10z m760 -154 c0
-8 -15 -27 -32 -42 -18 -15 -32 -29 -30 -30 1 -2 2 -11 2 -19 0 -11 -8 -8 -30
11 l-30 27 38 33 c38 34 82 45 82 20z m-387 -90 c49 -21 79 -59 84 -108 7 -56
-19 -92 -65 -90 -41 1 -57 11 -43 25 12 12 15 76 3 93 -23 35 -87 37 -118 3
-16 -18 -16 -20 -1 -37 29 -32 22 -50 -15 -43 -31 7 -33 9 -30 47 4 48 28 84
73 106 42 21 70 22 112 4z m347 -171 c0 -8 -6 -15 -14 -15 -17 0 -28 14 -19
24 12 12 33 6 33 -9z m-165 -45 c-10 -11 -22 -20 -27 -20 -4 0 -3 9 4 20 7 11
19 20 27 20 11 0 10 -5 -4 -20z m245 -99 c0 -5 3 -16 6 -25 4 -11 1 -16 -10
-16 -9 0 -16 5 -16 10 0 6 -7 10 -15 10 -8 0 -15 7 -15 15 0 9 9 15 25 15 14
0 25 -4 25 -9z m238 -978 c-2 -17 -9 -28 -18 -28 -19 0 -26 35 -8 46 23 15 29
10 26 -18z m-264 -288 c3 -8 1 -15 -4 -15 -6 0 -10 7 -10 15 0 8 2 15 4 15 2
0 6 -7 10 -15z m-17 -167 c7 -26 8 -49 3 -58 -8 -12 -9 -11 -10 5 0 11 -7 33
-15 49 -18 35 -19 46 -2 46 7 0 18 -19 24 -42z m-37 -68 c0 -5 -4 -10 -10 -10
-5 0 -10 5 -10 10 0 6 5 10 10 10 6 0 10 -4 10 -10z"/>
<path d="M1540 3331 c0 -36 6 -44 63 -92 34 -29 66 -56 71 -61 5 -4 7 -10 4
-13 -3 -4 -30 14 -60 38 -58 47 -99 73 -97 60 1 -4 0 -15 -3 -23 -3 -8 -12
-48 -19 -89 -8 -41 -20 -76 -26 -78 -7 -3 -24 14 -38 37 -21 33 -28 38 -39 28
-15 -14 -6 -70 19 -119 8 -15 15 -34 15 -41 1 -7 12 -35 26 -63 25 -52 26 -51
8 43 -6 28 -4 32 15 32 11 0 21 -4 21 -10 0 -5 -4 -10 -9 -10 -5 0 -7 -10 -3
-22 5 -20 6 -21 12 -3 10 27 22 2 14 -30 -3 -14 -10 -25 -14 -25 -4 0 -6 -10
-4 -22 9 -65 11 -178 4 -173 -5 3 -7 12 -3 20 3 8 0 15 -5 15 -8 0 -9 -28 -5
-85 6 -89 -7 -177 -33 -227 -18 -33 -18 -39 1 -32 8 3 17 21 21 40 8 45 20 51
28 14 10 -54 45 -29 46 34 0 13 -5 17 -17 14 -15 -4 -18 2 -17 34 0 22 -2 60
-6 84 -4 25 -3 47 1 50 5 3 8 30 8 59 -1 32 4 61 12 71 10 12 10 17 0 23 -14
9 -21 95 -9 107 4 4 22 -7 39 -25 21 -23 34 -30 41 -23 16 16 1 59 -22 65 -12
3 -20 14 -20 25 0 11 -7 23 -16 26 -14 5 -14 8 0 21 8 8 17 15 20 15 13 0 44
-44 39 -56 -3 -8 6 -32 21 -54 14 -22 26 -46 26 -54 0 -8 4 -17 9 -20 9 -6 51
-87 51 -99 0 -4 -11 -7 -25 -7 -14 0 -25 -1 -25 -3 0 -1 4 -17 10 -35 8 -31 7
-35 -20 -50 -17 -9 -30 -21 -30 -25 0 -5 -4 -5 -10 -2 -6 3 -7 -1 -4 -9 6 -15
23 -20 51 -17 6 1 14 -3 18 -9 10 -17 48 -12 41 5 -5 14 4 19 30 16 6 -1 17 5
23 13 11 13 8 15 -15 13 -15 -1 -29 4 -31 11 -3 6 2 12 11 12 9 0 15 6 14 13
-2 6 3 11 10 9 27 -5 10 17 -19 23 -21 5 -29 11 -25 22 3 8 6 17 6 19 0 2 8
-3 18 -11 82 -72 93 -79 68 -43 -18 26 -21 58 -5 58 5 0 8 -4 5 -9 -4 -5 5
-23 19 -39 13 -16 21 -33 17 -37 -4 -5 -2 -5 4 -2 6 4 35 -18 64 -49 30 -32
56 -52 61 -47 5 5 11 72 14 149 l6 139 -81 82 c-45 45 -86 83 -93 84 -27 3
-47 -2 -47 -12 0 -6 9 -8 20 -4 11 4 20 2 20 -4 0 -6 -5 -11 -11 -11 -5 0 -8
-4 -5 -8 2 -4 1 -14 -5 -22 -7 -13 -9 -12 -9 2 0 9 -5 20 -12 24 -7 4 -8 3 -4
-4 4 -7 3 -12 -3 -12 -21 0 -32 42 -28 117 l4 76 -24 -28 c-13 -15 -27 -40
-30 -56 -6 -29 -23 -41 -23 -15 0 20 29 87 53 120 l20 28 -89 84 c-49 45 -92
83 -96 84 -5 0 -8 -18 -8 -39z m20 -147 c0 -13 15 -33 38 -50 20 -15 40 -33
44 -38 14 -21 -2 -16 -43 13 -47 35 -74 42 -41 11 12 -12 22 -30 22 -41 0 -10
15 -32 32 -48 l33 -29 -27 5 c-14 3 -36 14 -47 24 -11 11 -26 18 -33 17 -10
-2 -13 19 -11 92 1 52 2 100 3 105 1 18 29 -39 30 -61z m-140 -64 c0 -5 -4
-10 -10 -10 -5 0 -10 5 -10 10 0 6 5 10 10 10 6 0 10 -4 10 -10z m15 -53 c0
-26 -20 -25 -23 2 -3 16 1 22 10 19 7 -3 13 -12 13 -21z m55 -27 c0 -5 -7 -10
-15 -10 -8 0 -15 5 -15 10 0 6 7 10 15 10 8 0 15 -4 15 -10z m-45 -20 c3 -5 1
-10 -4 -10 -6 0 -11 5 -11 10 0 6 2 10 4 10 3 0 8 -4 11 -10z m285 -189 c1
-14 -36 30 -47 56 -25 62 -12 68 17 8 16 -33 30 -62 30 -64z m30 86 c0 -5 -4
-5 -10 -2 -5 3 -10 14 -10 23 0 15 2 15 10 2 5 -8 10 -19 10 -23z m114 2 c-10
-16 -24 -9 -24 12 0 18 2 19 15 9 8 -7 12 -16 9 -21z m-64 -5 c0 -8 -4 -12
-10 -9 -5 3 -10 10 -10 16 0 5 5 9 10 9 6 0 10 -7 10 -16z m81 -24 c5 0 9 -6
9 -14 0 -11 -5 -12 -25 -3 -27 13 -35 33 -9 23 9 -3 20 -6 25 -6z m2 -54 c17
-15 24 -31 21 -40 -8 -22 -11 -20 -28 12 l-15 27 0 -40 c-1 -47 13 -76 23 -50
8 21 26 10 26 -15 0 -14 -5 -18 -17 -13 -16 6 -16 4 1 -15 29 -33 14 -36 -17
-4 -22 23 -29 41 -34 95 -7 74 -1 81 40 43z m57 -140 c0 -37 -4 -56 -9 -48 -4
7 -6 35 -3 63 3 32 1 49 -7 49 -6 0 -11 8 -11 18 1 15 2 15 15 -2 10 -13 15
-42 15 -80z m-234 -35 c-14 -22 -33 -12 -28 15 4 23 6 24 20 11 8 -8 11 -20 8
-26z"/>
<path d="M1540 3086 c-6 -9 -10 -21 -8 -28 3 -8 9 -4 17 10 15 28 9 39 -9 18z"/>
<path d="M2160 3349 c0 -17 3 -18 20 -9 11 6 20 12 20 14 0 2 -9 6 -20 9 -15
4 -20 0 -20 -14z"/>
<path d="M2475 3359 c-4 -6 -5 -12 -2 -15 2 -3 7 2 10 11 7 17 1 20 -8 4z"/>
<path d="M0 3350 c0 -5 4 -10 9 -10 6 0 13 5 16 10 3 6 -1 10 -9 10 -9 0 -16
-4 -16 -10z"/>
<path d="M2422 3331 c-1 -28 0 -29 19 -13 14 12 16 18 7 21 -7 2 -16 8 -19 13
-3 5 -6 -4 -7 -21z"/>
<path d="M2469 3302 c-36 -32 -78 -70 -94 -84 l-28 -26 20 -34 c27 -43 46
-103 40 -125 -2 -11 -9 1 -17 29 -16 62 -33 76 -48 42 -8 -17 -9 -31 -2 -44 5
-10 10 -33 10 -51 0 -31 0 -32 -42 -26 -23 3 -38 3 -32 -1 15 -11 17 -44 3
-69 -19 -36 -24 -28 -21 33 3 45 8 57 23 61 10 3 16 9 13 14 -10 16 -23 10
-67 -33 -24 -24 -67 -64 -94 -90 l-51 -47 -1 -118 c-1 -65 -4 -133 -7 -150 -8
-44 17 -45 53 -3 27 33 61 55 70 46 3 -3 0 -14 -8 -23 -13 -16 -12 -17 4 -4
10 8 15 21 12 31 -4 12 5 26 24 42 16 14 31 36 34 49 l4 24 8 -22 c9 -29 30
-29 53 -2 9 12 27 32 40 45 13 13 20 28 17 34 -3 5 4 14 15 20 11 6 20 16 20
23 0 7 13 37 28 67 32 63 32 90 -1 83 -18 -4 -15 1 15 29 20 18 39 45 42 61 8
33 3 33 -41 6 -54 -34 -50 -14 6 26 40 29 51 43 51 64 0 15 5 32 12 39 6 6 9
15 5 18 -4 4 -30 -11 -59 -33 -65 -49 -78 -57 -78 -46 0 5 32 33 70 62 39 30
70 56 71 60 6 34 6 81 1 81 -4 0 -37 -26 -73 -58z m-141 -378 c-6 -21 -13 -32
-15 -23 -4 17 15 75 22 67 2 -2 -1 -22 -7 -44z m69 -8 c-5 -34 -46 -106 -60
-106 -4 0 6 25 23 56 16 31 30 63 30 70 0 8 3 14 6 14 4 0 4 -15 1 -34z m-188
-93 c0 -29 -2 -33 -8 -18 -7 18 -4 55 5 55 2 0 4 -17 3 -37z m-29 -2 c0 -4
-11 -20 -25 -35 -31 -33 -34 -16 -3 19 23 27 28 30 28 16z m-31 -116 c1 16 9
21 33 23 l32 3 -39 -35 c-22 -18 -42 -32 -45 -31 -3 2 -4 23 -1 47 l5 43 7
-35 c3 -19 7 -26 8 -15z"/>
<path d="M1501 3313 c-1 -6 -4 -20 -7 -30 -5 -17 -5 -17 6 0 6 10 9 23 6 30
-3 9 -5 9 -5 0z"/>
<path d="M1911 3306 c8 -8 30 -17 49 -21 32 -6 34 -6 19 10 -9 9 -31 18 -49
20 -29 4 -32 3 -19 -9z"/>
<path d="M2121 3298 c10 -18 28 -16 62 7 14 10 10 12 -27 11 -38 -1 -43 -3
-35 -18z"/>
<path d="M1294 3273 c2 -10 13 -19 25 -21 12 -2 25 -10 28 -18 8 -21 -7 -104
-19 -104 -5 0 -7 7 -4 16 3 9 0 25 -8 36 -8 11 -12 26 -10 33 6 16 -12 29 -26
20 -7 -4 -7 -11 -2 -18 14 -18 62 -150 62 -170 0 -9 4 -17 9 -17 5 0 13 -9 16
-21 4 -11 9 -18 11 -16 3 3 -4 31 -16 63 -22 63 -26 88 -10 64 8 -11 9 -8 4
12 -4 20 -2 29 10 34 24 9 19 52 -9 80 -14 14 -25 29 -25 34 0 6 -9 10 -19 10
-13 0 -18 -6 -17 -17z"/>
<path d="M2080 3276 c7 -7 14 -6 21 1 9 9 7 12 -9 10 -14 -1 -18 -5 -12 -11z"/>
<path d="M2010 3260 c0 -5 5 -10 10 -10 6 0 10 5 10 10 0 6 -4 10 -10 10 -5 0
-10 -4 -10 -10z"/>
<path d="M2050 3260 c0 -5 5 -10 10 -10 6 0 10 5 10 10 0 6 -4 10 -10 10 -5 0
-10 -4 -10 -10z"/>
<path d="M2355 3260 c-3 -5 1 -10 10 -10 9 0 13 5 10 10 -3 6 -8 10 -10 10 -2
0 -7 -4 -10 -10z"/>
<path d="M1730 3240 c0 -5 5 -10 10 -10 6 0 10 5 10 10 0 6 -4 10 -10 10 -5 0
-10 -4 -10 -10z"/>
<path d="M1760 3211 c12 -8 12 -13 -4 -30 -17 -19 -17 -19 1 -17 22 4 25 47 3
53 -13 4 -13 3 0 -6z"/>
<path d="M1331 3184 c0 -11 3 -14 6 -6 3 7 2 16 -1 19 -3 4 -6 -2 -5 -13z"/>
<path d="M1787 3055 c-6 -15 10 -32 20 -21 4 3 1 6 -5 6 -6 0 -9 7 -6 15 4 8
4 15 1 15 -3 0 -7 -7 -10 -15z"/>
<path d="M1270 3018 c1 -18 39 -102 45 -96 7 6 -28 108 -37 108 -4 0 -8 -6 -8
-12z"/>
<path d="M1370 2886 c0 -22 3 -27 11 -19 8 8 8 16 0 30 -9 16 -10 14 -11 -11z"/>
<path d="M1605 2851 c-3 -6 -2 -11 3 -11 6 0 13 -7 16 -16 4 -12 2 -15 -9 -10
-11 4 -15 -2 -15 -24 0 -23 4 -30 20 -30 17 0 20 6 18 33 -2 38 -23 74 -33 58z"/>
<path d="M1470 2799 c0 -28 4 -48 9 -44 11 6 9 95 -1 95 -5 0 -8 -23 -8 -51z"/>
<path d="M2000 2829 c0 -8 -1 -94 -3 -191 -1 -97 1 -168 5 -158 4 11 13 17 21
14 27 -10 40 52 41 197 1 129 0 138 -17 133 -10 -3 -24 0 -32 6 -12 10 -15 10
-15 -1z m34 -205 c3 -9 6 -23 6 -31 0 -13 -3 -13 -15 -3 -16 13 -21 50 -6 50
5 0 12 -7 15 -16z"/>
<path d="M1550 2716 c0 -17 25 -15 42 2 9 9 6 12 -15 12 -17 0 -27 -5 -27 -14z"/>
<path d="M1860 2611 c0 -5 5 -13 10 -16 6 -3 10 -2 10 4 0 5 -4 13 -10 16 -5
3 -10 2 -10 -4z"/>
<path d="M2240 2576 c0 -14 -4 -26 -10 -26 -5 0 -10 -5 -10 -10 0 -15 36 5 43
24 3 8 -1 20 -9 26 -12 10 -14 8 -14 -14z"/>
<path d="M1838 2554 c5 -26 -29 -64 -58 -64 -11 0 -20 -4 -20 -9 0 -16 33 -36
53 -33 11 2 25 -5 34 -17 23 -34 73 -21 73 19 0 12 -8 15 -34 12 -28 -3 -35 0
-41 18 -4 14 -2 25 5 30 7 4 10 13 6 19 -4 6 -3 19 3 29 7 14 6 18 -8 18 -13
0 -16 -6 -13 -22z"/>
<path d="M1760 2549 c0 -25 33 -22 38 4 2 12 -3 17 -17 17 -15 0 -21 -6 -21
-21z"/>
<path d="M1905 2560 c3 -5 10 -10 16 -10 5 0 9 5 9 10 0 6 -7 10 -16 10 -8 0
-12 -4 -9 -10z"/>
<path d="M1930 2530 c0 -5 5 -10 10 -10 6 0 10 5 10 10 0 6 -4 10 -10 10 -5 0
-10 -4 -10 -10z"/>
<path d="M2110 2530 c-19 -4 -21 -7 -9 -12 9 -3 22 -2 30 2 19 13 8 18 -21 10z"/>
<path d="M0 2520 c0 -5 5 -10 10 -10 6 0 10 5 10 10 0 6 -4 10 -10 10 -5 0
-10 -4 -10 -10z"/>
<path d="M1605 2510 c3 -5 8 -10 11 -10 2 0 4 5 4 10 0 6 -5 10 -11 10 -5 0
-7 -4 -4 -10z"/>
<path d="M1680 2445 c0 -35 0 -35 43 -34 42 1 42 1 9 9 -46 11 -47 15 -12 30
34 14 25 30 -17 30 -20 0 -23 -5 -23 -35z"/>
<path d="M2102 2450 c0 -14 2 -19 5 -12 2 6 2 18 0 25 -3 6 -5 1 -5 -13z"/>
<path d="M1920 2420 c0 -5 10 -10 23 -10 18 0 19 2 7 10 -19 13 -30 13 -30 0z"/>
<path d="M2110 1985 c-10 -12 -10 -21 -2 -38 7 -12 16 -34 22 -49 5 -16 16
-28 25 -28 20 0 55 36 55 56 0 19 -19 56 -34 66 -19 13 -53 9 -66 -7z"/>
<path d="M2327 591 c-3 -12 1 -22 9 -25 16 -6 18 12 5 32 -6 11 -9 9 -14 -7z"/>
<path d="M2265 541 c-8 -15 3 -31 21 -31 9 0 14 7 12 17 -4 20 -24 28 -33 14z"/>
<path d="M2144 506 c-3 -8 4 -29 15 -45 24 -34 27 -56 6 -48 -18 8 -32 -13
-15 -23 9 -6 9 -14 -3 -36 -16 -32 -13 -54 8 -54 9 0 13 11 13 29 -1 16 9 41
21 56 29 38 26 69 -9 105 -24 25 -31 28 -36 16z"/>
<path d="M2400 444 l0 -47 40 6 c35 4 40 2 40 -14 0 -10 -5 -19 -11 -19 -6 0
-9 -9 -6 -20 3 -11 1 -20 -4 -20 -15 0 -10 -50 6 -56 8 -4 15 -12 15 -19 0
-13 21 -25 46 -25 29 0 15 73 -25 122 -7 10 -11 23 -8 31 3 8 2 29 -3 48 -6
26 -8 29 -9 10 l-1 -24 -20 23 c-11 13 -20 29 -20 37 0 7 -9 13 -20 13 -17 0
-20 -7 -20 -46z"/>
<path d="M2333 463 c-18 -7 -16 -30 4 -37 24 -10 41 11 23 28 -8 7 -21 12 -27
9z"/>
<path d="M2230 283 c0 -4 5 -15 10 -23 8 -13 10 -13 10 2 0 9 -4 20 -10 23 -5
3 -10 3 -10 -2z"/>
<path d="M2356 171 c-4 -7 -5 -15 -2 -18 9 -9 19 4 14 18 -4 11 -6 11 -12 0z"/>
<path d="M2230 160 c0 -5 4 -10 9 -10 6 0 13 5 16 10 3 6 -1 10 -9 10 -9 0
-16 -4 -16 -10z"/>
<path d="M2140 121 c0 -5 6 -14 14 -20 10 -9 15 -8 19 3 3 8 3 17 0 20 -9 9
-33 7 -33 -3z"/>
<path d="M2103 106 c4 -10 7 -27 7 -37 0 -11 5 -17 10 -14 14 9 7 58 -10 63
-9 3 -11 -1 -7 -12z"/>
<path d="M2020 100 c0 -5 7 -10 15 -10 8 0 15 5 15 10 0 6 -7 10 -15 10 -8 0
-15 -4 -15 -10z"/>
<path d="M2320 80 c0 -5 5 -10 11 -10 5 0 7 5 4 10 -3 6 -8 10 -11 10 -2 0 -4
-4 -4 -10z"/>
<path d="M2051 55 c13 -13 25 -20 27 -15 4 12 -23 40 -38 40 -7 0 -2 -11 11
-25z"/>
</g>
</svg>
